<?xml version="1.0" standalone="no"?>
<!DOCTYPE svg PUBLIC "-//W3C//DTD SVG 20010904//EN"
 "http://www.w3.org/TR/2001/REC-SVG-20010904/DTD/svg10.dtd">
<svg version="1.0" xmlns="http://www.w3.org/2000/svg"
 width="1080.000000pt" height="1080.000000pt" viewBox="0 0 1080.000000 1080.000000"
 preserveAspectRatio="xMidYMid meet">
<metadata>
Created by potrace 1.11, written by Peter Selinger 2001-2013
</metadata>
<g transform="translate(0.000000,1080.000000) scale(0.100000,-0.100000)"
fill="#000000" stroke="none">
<path d="M4690 8254 c-96 -25 -161 -64 -236 -138 -115 -115 -154 -220 -153
-415 0 -120 12 -287 29 -426 23 -184 27 -220 25 -223 -2 -2 -18 18 -36 45 -18
26 -51 69 -73 94 -65 72 -163 204 -225 304 -24 39 -61 95 -81 125 -21 30 -72
109 -114 176 -84 135 -162 216 -248 258 -207 100 -422 64 -584 -98 -110 -111
-162 -241 -151 -386 9 -122 36 -184 166 -379 20 -30 58 -88 85 -130 123 -192
293 -432 317 -446 10 -7 179 -231 179 -238 0 -2 -30 -7 -67 -10 -286 -26 -380
-61 -497 -187 -145 -158 -175 -370 -79 -570 35 -72 151 -188 223 -223 87 -42
174 -60 255 -54 92 8 213 24 250 33 l30 7 -30 -24 c-40 -33 -129 -89 -142 -89
-9 0 -93 -51 -223 -135 -36 -23 -88 -56 -116 -73 -28 -18 -60 -42 -70 -54 -10
-11 -68 -53 -129 -93 -122 -79 -200 -157 -239 -238 -100 -206 -63 -421 98
-583 143 -143 337 -189 520 -125 66 23 262 145 316 197 39 37 313 211 381 242
24 11 64 34 89 53 106 78 322 216 405 259 50 26 127 70 173 98 46 29 87 52 91
52 4 0 13 -28 20 -62 20 -101 37 -166 77 -302 8 -26 14 -64 14 -83 0 -19 7
-65 15 -102 38 -173 45 -220 45 -305 0 -169 45 -282 154 -392 206 -206 506
-206 712 0 107 107 160 239 152 377 l-4 67 31 -21 c46 -32 103 -78 154 -123
25 -23 69 -57 97 -75 66 -44 251 -170 329 -224 33 -23 86 -57 118 -76 32 -19
84 -56 115 -82 163 -138 359 -163 552 -70 73 35 198 160 233 233 56 117 70
227 42 335 -47 180 -136 272 -476 491 -83 54 -265 176 -344 232 -27 19 -66 50
-85 68 -36 34 -78 65 -240 180 -52 37 -116 86 -141 108 -26 23 -77 66 -114 96
-36 30 -88 73 -115 95 -26 22 -80 65 -120 95 -106 80 -131 102 -126 107 3 3
178 5 390 5 417 -1 444 1 556 55 72 35 188 151 223 223 95 197 66 410 -75 565
-48 53 -50 56 -32 71 41 32 132 89 189 118 77 39 183 144 218 216 102 212 66
433 -97 596 -174 173 -418 201 -620 71 -28 -17 -66 -39 -86 -48 -19 -9 -55
-32 -80 -50 -25 -18 -70 -50 -100 -71 -30 -21 -84 -60 -120 -88 -89 -68 -173
-128 -234 -169 -28 -18 -64 -46 -81 -61 -16 -15 -50 -41 -75 -59 -25 -17 -74
-54 -110 -81 -116 -88 -290 -201 -300 -195 -6 3 -10 18 -10 33 0 15 -7 52 -15
82 -21 76 -42 188 -55 295 -6 50 -16 115 -21 145 -45 236 -58 355 -69 590 -6
158 -12 206 -29 254 -88 247 -357 395 -601 330z"/>
</g>
</svg>
